<mxfile host="app.diagrams.net" modified="2023-03-06T14:40:45.424Z" agent="5.0 (Windows NT 10.0; Win64; x64) AppleWebKit/537.36 (KHTML, like Gecko) Chrome/110.0.0.0 Safari/537.36" etag="wSa733Yz_cC3gepUTpLd" version="21.0.2" type="github">
  <diagram name="페이지-1" id="EIzgN6pDpyosEZZJOdce">
    <mxGraphModel dx="3247" dy="884" grid="1" gridSize="10" guides="1" tooltips="1" connect="1" arrows="1" fold="1" page="1" pageScale="1" pageWidth="827" pageHeight="1169" math="0" shadow="0">
      <root>
        <mxCell id="0" />
        <mxCell id="1" parent="0" />
        <mxCell id="W8TLwsU5MxoYfqS5SGf7-1" value="Actor" style="shape=umlActor;verticalLabelPosition=bottom;verticalAlign=top;html=1;outlineConnect=0;" vertex="1" parent="1">
          <mxGeometry x="-1640" y="360" width="20" height="50" as="geometry" />
        </mxCell>
        <mxCell id="W8TLwsU5MxoYfqS5SGf7-2" value="회원 로그인" style="rounded=1;whiteSpace=wrap;html=1;fillColor=#fff2cc;strokeColor=#d6b656;" vertex="1" parent="1">
          <mxGeometry x="-1390" y="120" width="120" height="60" as="geometry" />
        </mxCell>
        <mxCell id="W8TLwsU5MxoYfqS5SGf7-3" value="회원 가입" style="rounded=1;whiteSpace=wrap;html=1;fillColor=#fff2cc;strokeColor=#d6b656;" vertex="1" parent="1">
          <mxGeometry x="-1570" y="270" width="120" height="60" as="geometry" />
        </mxCell>
        <mxCell id="W8TLwsU5MxoYfqS5SGf7-4" value="게시판 보기" style="rounded=1;whiteSpace=wrap;html=1;fillColor=#fff2cc;strokeColor=#d6b656;fontStyle=1" vertex="1" parent="1">
          <mxGeometry x="-1570" y="400" width="120" height="60" as="geometry" />
        </mxCell>
        <mxCell id="W8TLwsU5MxoYfqS5SGf7-5" value="게시글 보기" style="rounded=1;whiteSpace=wrap;html=1;fillColor=#fff2cc;strokeColor=#d6b656;" vertex="1" parent="1">
          <mxGeometry x="-1570" y="525" width="120" height="60" as="geometry" />
        </mxCell>
        <mxCell id="W8TLwsU5MxoYfqS5SGf7-6" value="게시판 검색" style="rounded=1;whiteSpace=wrap;html=1;fillColor=#fff2cc;strokeColor=#d6b656;" vertex="1" parent="1">
          <mxGeometry x="-1300" y="450" width="120" height="60" as="geometry" />
        </mxCell>
        <mxCell id="W8TLwsU5MxoYfqS5SGf7-22" style="rounded=0;orthogonalLoop=1;jettySize=auto;html=1;exitX=0;exitY=0.25;exitDx=0;exitDy=0;" edge="1" parent="1" source="W8TLwsU5MxoYfqS5SGf7-7">
          <mxGeometry relative="1" as="geometry">
            <mxPoint x="-1300.3333333333335" y="364.8888888888889" as="targetPoint" />
          </mxGeometry>
        </mxCell>
        <mxCell id="W8TLwsU5MxoYfqS5SGf7-7" value="게시판 정렬" style="rounded=1;whiteSpace=wrap;html=1;fillColor=#fff2cc;strokeColor=#d6b656;" vertex="1" parent="1">
          <mxGeometry x="-1300" y="350" width="120" height="60" as="geometry" />
        </mxCell>
        <mxCell id="W8TLwsU5MxoYfqS5SGf7-8" value="인증" style="rounded=1;whiteSpace=wrap;html=1;fillColor=#fff2cc;strokeColor=#d6b656;" vertex="1" parent="1">
          <mxGeometry x="-1160" y="120" width="120" height="60" as="geometry" />
        </mxCell>
        <mxCell id="W8TLwsU5MxoYfqS5SGf7-9" value="로그인 실패" style="rounded=1;whiteSpace=wrap;html=1;fillColor=#fff2cc;strokeColor=#d6b656;" vertex="1" parent="1">
          <mxGeometry x="-1160" y="190" width="120" height="60" as="geometry" />
        </mxCell>
        <mxCell id="W8TLwsU5MxoYfqS5SGf7-10" value="게시글 쓰기, 수정, 삭제" style="rounded=1;whiteSpace=wrap;html=1;fillColor=#fff2cc;strokeColor=#d6b656;" vertex="1" parent="1">
          <mxGeometry x="-1300" y="555" width="120" height="60" as="geometry" />
        </mxCell>
        <mxCell id="W8TLwsU5MxoYfqS5SGf7-11" value="댓글 보기, 쓰기, 수정, 삭제" style="rounded=1;whiteSpace=wrap;html=1;fillColor=#fff2cc;strokeColor=#d6b656;" vertex="1" parent="1">
          <mxGeometry x="-1300" y="670" width="120" height="60" as="geometry" />
        </mxCell>
        <mxCell id="W8TLwsU5MxoYfqS5SGf7-13" value="" style="endArrow=none;html=1;rounded=0;exitX=1;exitY=0.3333333333333333;exitDx=0;exitDy=0;exitPerimeter=0;entryX=0;entryY=0.5;entryDx=0;entryDy=0;" edge="1" parent="1" source="W8TLwsU5MxoYfqS5SGf7-1" target="W8TLwsU5MxoYfqS5SGf7-3">
          <mxGeometry width="50" height="50" relative="1" as="geometry">
            <mxPoint x="-1230" y="440" as="sourcePoint" />
            <mxPoint x="-1180" y="390" as="targetPoint" />
          </mxGeometry>
        </mxCell>
        <mxCell id="W8TLwsU5MxoYfqS5SGf7-14" value="" style="endArrow=none;html=1;rounded=0;entryX=0;entryY=0.5;entryDx=0;entryDy=0;exitX=1;exitY=0.3333333333333333;exitDx=0;exitDy=0;exitPerimeter=0;" edge="1" parent="1" source="W8TLwsU5MxoYfqS5SGf7-1" target="W8TLwsU5MxoYfqS5SGf7-4">
          <mxGeometry width="50" height="50" relative="1" as="geometry">
            <mxPoint x="-1580" y="380" as="sourcePoint" />
            <mxPoint x="-1560" y="310" as="targetPoint" />
          </mxGeometry>
        </mxCell>
        <mxCell id="W8TLwsU5MxoYfqS5SGf7-15" value="" style="endArrow=none;html=1;rounded=0;exitX=1;exitY=0.3333333333333333;exitDx=0;exitDy=0;exitPerimeter=0;entryX=0;entryY=0.5;entryDx=0;entryDy=0;" edge="1" parent="1" source="W8TLwsU5MxoYfqS5SGf7-1" target="W8TLwsU5MxoYfqS5SGf7-5">
          <mxGeometry width="50" height="50" relative="1" as="geometry">
            <mxPoint x="-1600" y="397" as="sourcePoint" />
            <mxPoint x="-1550" y="320" as="targetPoint" />
          </mxGeometry>
        </mxCell>
        <mxCell id="W8TLwsU5MxoYfqS5SGf7-16" value="" style="endArrow=none;html=1;rounded=0;exitX=1;exitY=0.3333333333333333;exitDx=0;exitDy=0;exitPerimeter=0;entryX=0;entryY=0.5;entryDx=0;entryDy=0;" edge="1" parent="1" source="W8TLwsU5MxoYfqS5SGf7-1" target="W8TLwsU5MxoYfqS5SGf7-2">
          <mxGeometry width="50" height="50" relative="1" as="geometry">
            <mxPoint x="-1610" y="387" as="sourcePoint" />
            <mxPoint x="-1560" y="565" as="targetPoint" />
          </mxGeometry>
        </mxCell>
        <mxCell id="W8TLwsU5MxoYfqS5SGf7-17" value="include" style="endArrow=block;html=1;rounded=0;exitX=1;exitY=0.5;exitDx=0;exitDy=0;entryX=0;entryY=0.5;entryDx=0;entryDy=0;dashed=1;endFill=1;" edge="1" parent="1" source="W8TLwsU5MxoYfqS5SGf7-2" target="W8TLwsU5MxoYfqS5SGf7-8">
          <mxGeometry width="50" height="50" relative="1" as="geometry">
            <mxPoint x="-1600" y="397" as="sourcePoint" />
            <mxPoint x="-1550" y="575" as="targetPoint" />
          </mxGeometry>
        </mxCell>
        <mxCell id="W8TLwsU5MxoYfqS5SGf7-18" value="extend" style="endArrow=classic;html=1;rounded=0;entryX=1;entryY=0.5;entryDx=0;entryDy=0;dashed=1;endFill=1;exitX=0;exitY=0.5;exitDx=0;exitDy=0;" edge="1" parent="1" source="W8TLwsU5MxoYfqS5SGf7-9" target="W8TLwsU5MxoYfqS5SGf7-2">
          <mxGeometry width="50" height="50" relative="1" as="geometry">
            <mxPoint x="-1090" y="290" as="sourcePoint" />
            <mxPoint x="-1540" y="585" as="targetPoint" />
          </mxGeometry>
        </mxCell>
        <mxCell id="W8TLwsU5MxoYfqS5SGf7-19" value="" style="endArrow=classic;dashed=1;html=1;dashPattern=1 3;strokeWidth=2;rounded=0;endFill=1;exitX=1;exitY=0;exitDx=0;exitDy=0;entryX=0.25;entryY=1;entryDx=0;entryDy=0;" edge="1" parent="1" source="W8TLwsU5MxoYfqS5SGf7-4" target="W8TLwsU5MxoYfqS5SGf7-2">
          <mxGeometry width="50" height="50" relative="1" as="geometry">
            <mxPoint x="-1230" y="440" as="sourcePoint" />
            <mxPoint x="-1180" y="390" as="targetPoint" />
          </mxGeometry>
        </mxCell>
        <mxCell id="W8TLwsU5MxoYfqS5SGf7-21" value="" style="endArrow=classic;dashed=1;html=1;dashPattern=1 3;strokeWidth=2;rounded=0;exitX=1;exitY=0.25;exitDx=0;exitDy=0;endFill=1;entryX=0.25;entryY=1;entryDx=0;entryDy=0;" edge="1" parent="1" source="W8TLwsU5MxoYfqS5SGf7-5" target="W8TLwsU5MxoYfqS5SGf7-2">
          <mxGeometry width="50" height="50" relative="1" as="geometry">
            <mxPoint x="-1180" y="440" as="sourcePoint" />
            <mxPoint x="-1360" y="190" as="targetPoint" />
          </mxGeometry>
        </mxCell>
        <mxCell id="W8TLwsU5MxoYfqS5SGf7-23" value="" style="endArrow=classic;dashed=1;html=1;dashPattern=1 3;strokeWidth=2;rounded=0;entryX=1;entryY=0.5;entryDx=0;entryDy=0;exitX=0;exitY=0.5;exitDx=0;exitDy=0;endFill=1;" edge="1" parent="1" source="W8TLwsU5MxoYfqS5SGf7-6" target="W8TLwsU5MxoYfqS5SGf7-4">
          <mxGeometry width="50" height="50" relative="1" as="geometry">
            <mxPoint x="-1210" y="450" as="sourcePoint" />
            <mxPoint x="-1160" y="400" as="targetPoint" />
          </mxGeometry>
        </mxCell>
        <mxCell id="W8TLwsU5MxoYfqS5SGf7-24" value="" style="endArrow=classic;dashed=1;html=1;dashPattern=1 3;strokeWidth=2;rounded=0;entryX=1;entryY=0.5;entryDx=0;entryDy=0;exitX=0;exitY=0.5;exitDx=0;exitDy=0;endFill=1;" edge="1" parent="1" source="W8TLwsU5MxoYfqS5SGf7-7" target="W8TLwsU5MxoYfqS5SGf7-4">
          <mxGeometry width="50" height="50" relative="1" as="geometry">
            <mxPoint x="-1290" y="490" as="sourcePoint" />
            <mxPoint x="-1440" y="440" as="targetPoint" />
          </mxGeometry>
        </mxCell>
      </root>
    </mxGraphModel>
  </diagram>
</mxfile>
